PathFileType	4	(X/Y/Z)	/Users/itak/Documents/Research/Walk-IL/dataset/trc/00162_00008.trc
DataRate	CameraRate	NumFrames	NumMarkers	Units	OrigDataRate	OrigDataStartFrame	OrigNumFrames
100.000000	100.000000	4	53	mm	100.000000	385	617
Frame#	Time	RPSI			LPSI			L3			STRN			T10			C7			CLAV			RBAK			LBAK			LSHO			LUPA			LAEL			LAOL			LWTS			LWPS			LFRA			LIFD			LHPS			LHTS			RSHO			RUPA			RAEL			RAOL			RWTS			RWPS			RFRA			RIFD			RHTS			RHPS			RBHD			LFHD			RFHD			LBHD			LHIP			RHIP			RASI			LASI			LKNE			LTHI			LANK			LTIP			LTOE			LMT1			LMT5			LHEE			RKNE			RTHI			RANK			RTIP			RTOE			RMT1			RMT5			RHEE			
		X1	Y1	Z1	X2	Y2	Z2	X3	Y3	Z3	X4	Y4	Z4	X5	Y5	Z5	X6	Y6	Z6	X7	Y7	Z7	X8	Y8	Z8	X9	Y9	Z9	X10	Y10	Z10	X11	Y11	Z11	X12	Y12	Z12	X13	Y13	Z13	X14	Y14	Z14	X15	Y15	Z15	X16	Y16	Z16	X17	Y17	Z17	X18	Y18	Z18	X19	Y19	Z19	X20	Y20	Z20	X21	Y21	Z21	X22	Y22	Z22	X23	Y23	Z23	X24	Y24	Z24	X25	Y25	Z25	X26	Y26	Z26	X27	Y27	Z27	X28	Y28	Z28	X29	Y29	Z29	X30	Y30	Z30	X31	Y31	Z31	X32	Y32	Z32	X33	Y33	Z33	X34	Y34	Z34	X35	Y35	Z35	X36	Y36	Z36	X37	Y37	Z37	X38	Y38	Z38	X39	Y39	Z39	X40	Y40	Z40	X41	Y41	Z41	X42	Y42	Z42	X43	Y43	Z43	X44	Y44	Z44	X45	Y45	Z45	X46	Y46	Z46	X47	Y47	Z47	X48	Y48	Z48	X49	Y49	Z49	X50	Y50	Z50	X51	Y51	Z51	X52	Y52	Z52	X53	Y53	Z53	

386	3.85	-611.1644287109375	1016.720397949219	32.64853286743164	-599.7903442382812	1013.165466308594	-88.07959747314453	-606.3092651367188	1050.660278320312	-22.23439788818359	-340.712646484375	1258.628051757812	-15.43013668060303	-637.745849609375	1215.142211914062	-23.51350975036621	-563.08837890625	1482.025634765625	-40.02970886230469	-365.4987182617188	1372.786865234375	-29.86343002319336	-636.7236328125	1312.305908203125	74.08635711669922	-569.90283203125	1453.186645507812	-140.37060546875	-492.7364501953125	1435.892456054688	-217.0564575195312	-527.6019897460938	1302.210571289062	-285.8810119628906	-512.4409790039062	1085.66943359375	-301.2477722167969	-552.0430297851562	1068.516357421875	-223.8257293701172	-366.7411804199219	873.844482421875	-275.4627990722656	-447.1271362304688	838.5816040039062	-308.0073852539062	-485.6011047363281	976.4398803710938	-314.0993041992188	-322.6555480957031	698.1820678710938	-247.0318450927734	-413.4489440917969	773.5737915039062	-305.0377807617188	-344.5933227539062	797.89453125	-296.2495727539062	-502.7852172851562	1464.031005859375	143.2339782714844	-521.7777709960938	1398.858032226562	215.3090362548828	-518.9119262695312	1112.216064453125	286.4154052734375	-525.1806640625	1097.80078125	188.6855926513672	-349.2312927246094	908.7044677734375	280.4750061035156	-420.5707702636719	881.1581420898438	325.4114685058594	-485.3511962890625	1044.288452148438	308.0169982910156	-299.8165283203125	727.3397216796875	269.5732116699219	-306.7891540527344	822.6808471679688	296.7843933105469	-379.23876953125	804.306884765625	328.7835083007812	-480.7172241210938	1652.7822265625	30.43850517272949	-332.2227478027344	1668.631469726562	-128.3994903564453	-312.0418090820312	1680.909057617188	-0.8631227612495422	-509.0935974121094	1648.08154296875	-106.098762512207	-482.9557495117188	955.063232421875	-199.5080871582031	-469.5666809082031	976.2355346679688	171.0631866455078	-383.9710388183594	1002.934814453125	127.4882659912109	-367.0606994628906	997.9147338867188	-130.1167907714844	-248.8773956298828	503.2278442382812	-157.139404296875	-320.5018310546875	625.903564453125	-192.3894958496094	-103.4657135009766	49.26031875610352	-154.847412109375	-183.7432861328125	286.4797058105469	-170.9230346679688	76.53131103515625	164.8938751220703	-141.026123046875	41.16894149780273	139.4136505126953	-92.23677062988281	-8.466727256774902	91.49645233154297	-197.0718383789062	-146.6611175537109	33.83070373535156	-82.95829772949219	-546.577392578125	485.1170349121094	111.5483474731445	-450.1458435058594	740.5980834960938	168.3956146240234	-787.75	50.80617141723633	56.03787994384766	-571.7603759765625	364.3918762207031	83.05701446533203	-564.5107421875	40.65237426757812	45.23136138916016	-614.9696655273438	42.29575347900391	-4.948191165924072	-682.9794921875	33.89943695068359	104.5533828735352	-832.9896240234375	65.76155853271484	-16.17609405517578	
387	3.86	-599.4085083007812	1016.276672363281	31.35404205322266	-587.7162475585938	1012.369262695312	-89.26329040527344	-594.481201171875	1049.605712890625	-23.3332691192627	-329.2516784667969	1258.063110351562	-16.36288642883301	-626.2012939453125	1213.791259765625	-24.55682373046875	-552.281005859375	1480.924560546875	-41.38318634033203	-354.3726196289062	1372.074096679688	-30.96683502197266	-625.618896484375	1311.1669921875	72.86561584472656	-559.02001953125	1451.895629882812	-141.6841583251953	-481.8213806152344	1434.619873046875	-218.3865814208984	-516.5264892578125	1300.6201171875	-286.8105773925781	-501.2314453125	1084.087280273438	-301.395263671875	-540.2731323242188	1066.953857421875	-223.8962860107422	-356.2210998535156	871.7413940429688	-275.8475341796875	-436.9377136230469	836.7860717773438	-307.9552307128906	-474.7559814453125	974.77294921875	-314.1083984375	-312.7669677734375	695.9282836914062	-247.4793243408203	-403.5248413085938	771.6448364257812	-305.0628356933594	-334.4811706542969	795.68798828125	-296.6395263671875	-492.0105285644531	1463.157470703125	141.9897766113281	-511.0730285644531	1397.90576171875	214.0015106201172	-509.0985412597656	1111.001953125	284.0186462402344	-514.637451171875	1096.911376953125	186.3598937988281	-340.6571655273438	906.447998046875	278.4821472167969	-412.3780517578125	879.3171997070312	322.9326171875	-475.9952392578125	1042.875854492188	305.5918884277344	-292.3794860839844	724.804443359375	267.3820495605469	-298.8530883789062	820.1128540039062	294.7966918945312	-371.5928039550781	802.1729125976562	326.32080078125	-470.415283203125	1651.999145507812	29.04520225524902	-321.82080078125	1668.03076171875	-129.7029876708984	-301.7802734375	1680.464233398438	-2.134647130966187	-498.6962585449219	1647.109497070312	-107.5228118896484	-470.4578857421875	954.2999267578125	-200.3614349365234	-458.4551391601562	975.3788452148438	170.2529602050781	-372.4668273925781	1001.955810546875	127.0442581176758	-354.7547912597656	996.87158203125	-130.4797821044922	-236.8698577880859	502.2644348144531	-157.0656127929688	-307.8201293945312	625.3059692382812	-192.3149108886719	-97.65858459472656	46.19840240478516	-153.7627868652344	-174.4935760498047	284.0499877929688	-170.2173767089844	83.82526397705078	159.2875061035156	-139.9258575439453	48.24816513061523	134.4391632080078	-91.14171600341797	-2.229636430740356	87.16896820068359	-195.9134368896484	-141.0938415527344	31.31406402587891	-81.8536376953125	-539.633056640625	485.0982971191406	111.9191741943359	-441.0282592773438	739.7802124023438	168.1781005859375	-787.06689453125	53.34407043457031	56.80677795410156	-566.4781494140625	364.5133666992188	83.71113586425781	-564.4556884765625	40.56707382202148	45.2657470703125	-614.8145751953125	42.50457763671875	-4.641318321228027	-682.5753173828125	33.99221038818359	104.7165145874023	-832.2476196289062	69.99375152587891	-15.27221202850342	
388	3.87	-587.3624877929688	1016.056884765625	29.89052200317383	-575.25537109375	1011.807495117188	-90.60572814941406	-582.3482055664062	1048.748168945312	-24.59090995788574	-317.6068420410156	1257.794311523438	-17.3723087310791	-614.4293212890625	1212.598510742188	-25.73757743835449	-541.3638305664062	1480.017944335938	-42.85689544677734	-343.1056213378906	1371.640991210938	-32.16135787963867	-614.3508911132812	1310.188598632812	71.50320434570312	-547.9920043945312	1450.80224609375	-143.1081390380859	-470.7587890625	1433.5849609375	-219.8259582519531	-505.3195495605469	1299.258911132812	-287.8428039550781	-489.9802856445312	1082.725219726562	-301.5566101074219	-528.4140014648438	1065.650756835938	-223.9123229980469	-345.8842468261719	869.69677734375	-276.278564453125	-427.0018615722656	835.149658203125	-307.8600463867188	-464.0060424804688	973.3053588867188	-314.1102294921875	-303.3165588378906	693.6803588867188	-247.9043731689453	-393.9577026367188	769.8264770507812	-305.04736328125	-324.6895751953125	793.4862060546875	-297.0470275878906	-481.1560974121094	1462.512939453125	140.6259613037109	-500.3068542480469	1397.200805664062	212.5714874267578	-499.3112487792969	1110.049072265625	281.5192565917969	-504.0736389160156	1096.29638671875	183.9606323242188	-332.2560119628906	904.33984375	276.3844604492188	-404.3747863769531	877.6857299804688	320.3674621582031	-466.7179565429688	1041.711669921875	303.0697326660156	-285.3193359375	722.3529052734375	265.0299987792969	-291.1759948730469	817.6412963867188	292.6677551269531	-364.2266845703125	800.2078857421875	323.7389221191406	-460.0537414550781	1651.419311523438	27.58045196533203	-311.3139343261719	1667.719482421875	-131.0159606933594	-291.4504089355469	1680.265625	-3.406025648117065	-488.1956787109375	1646.378784179688	-109.0284729003906	-457.5452270507812	953.8429565429688	-201.3462066650391	-447.1754760742188	974.6958618164062	169.3754425048828	-360.7225646972656	1001.220275878906	126.5620651245117	-342.0739135742188	996.1423950195312	-130.8728332519531	-224.94189453125	501.2970275878906	-157.0244750976562	-294.9573059082031	624.8853149414062	-192.3257751464844	-93.33970642089844	43.01218795776367	-152.6423950195312	-165.8849334716797	281.4533386230469	-169.4124145507812	90.19731140136719	152.5012512207031	-138.8222961425781	54.28395462036133	128.4854278564453	-90.06330871582031	2.680752992630005	82.21915435791016	-194.6929321289062	-137.0513153076172	28.82598876953125	-80.69729614257812	-532.3422241210938	485.2698059082031	112.3310928344727	-431.6043090820312	739.154296875	167.9045104980469	-786.2296752929688	56.21952056884766	57.68636322021484	-560.923583984375	364.8440246582031	84.44814300537109	-564.388671875	40.48582458496094	45.30136108398438	-614.6046752929688	42.74283218383789	-4.314058303833008	-682.0809326171875	34.15948486328125	104.9040451049805	-831.2532348632812	74.66688537597656	-14.21889114379883	
389	3.88	-575.0123291015625	1016.037170410156	28.27470779418945	-562.4029541015625	1011.486755371094	-92.10618591308594	-569.8944702148438	1048.100830078125	-26.00446891784668	-305.7857666015625	1257.823364257812	-18.44394493103027	-602.44287109375	1211.579345703125	-27.07660484313965	-530.3388671875	1479.318237304688	-44.4578857421875	-331.7019653320312	1371.488403320312	-33.43461227416992	-602.9362182617188	1309.372680664062	69.97943115234375	-536.8088989257812	1449.916381835938	-144.6534271240234	-459.5269470214844	1432.7890625	-221.3751373291016	-493.9595947265625	1298.12841796875	-288.9809875488281	-478.6718444824219	1081.5830078125	-301.7545776367188	-516.4939575195312	1064.632202148438	-223.8927307128906	-335.72216796875	867.7169189453125	-276.748779296875	-417.2975463867188	833.678466796875	-307.7285766601562	-453.3358459472656	972.0396118164062	-314.1214904785156	-294.2720031738281	691.460205078125	-248.2820587158203	-384.721923828125	768.1283569335938	-304.9913024902344	-315.2026062011719	791.302734375	-297.4623413085938	-470.2408142089844	1462.099365234375	139.1478881835938	-489.5032653808594	1396.734985351562	211.0184478759766	-489.5397644042969	1109.3583984375	278.930908203125	-493.5099487304688	1095.949462890625	181.4825592041016	-324.0073547363281	902.3965454101562	274.1836853027344	-396.5298767089844	876.2816772460938	317.7386474609375	-457.5005798339844	1040.803344726562	300.4657592773438	-278.6327819824219	719.9921264648438	262.5293579101562	-283.7368774414062	815.2823486328125	290.3958129882812	-357.0993957519531	798.43212890625	321.0599365234375	-449.6343383789062	1651.055053710938	26.04633522033691	-300.7012023925781	1667.70458984375	-132.337646484375	-281.0540466308594	1680.324340820312	-4.67974328994751	-477.5905456542969	1645.896850585938	-110.6193389892578	-444.2296142578125	953.7229614257812	-202.4764404296875	-435.71240234375	974.174560546875	168.4395599365234	-348.7239074707031	1000.728088378906	126.0415649414062	-329.0325622558594	995.7360229492188	-131.2894439697266	-213.1945648193359	500.3387145996094	-156.9961395263672	-282.0234375	624.6069946289062	-192.4400177001953	-90.15896606445312	39.99459457397461	-151.5494079589844	-157.7455902099609	278.8630981445312	-168.5089111328125	95.96710968017578	144.8115844726562	-137.6850738525391	59.56105804443359	121.8173828125	-88.96601104736328	6.625802040100098	76.95363616943359	-193.4146423339844	-134.2037200927734	26.64602470397949	-79.57131195068359	-524.6482543945312	485.6192932128906	112.7783126831055	-421.8162536621094	738.7146606445312	167.5664672851562	-785.1937866210938	59.45380020141602	58.66438293457031	-555.0538330078125	365.3716735839844	85.26626586914062	-564.3095703125	40.41200256347656	45.33512878417969	-614.3261108398438	43.00684356689453	-3.983302593231201	-681.484130859375	34.41372680664062	105.1174850463867	-829.9570922851562	79.79799652099609	-13.03171634674072	
